<svg width="16" height="18" viewBox="0 0 16 18" fill="none" xmlns="http://www.w3.org/2000/svg">
<path d="M8 0.666748C9.98912 0.666748 11.8968 1.45692 13.3033 2.86345C14.7098 4.26997 15.5 6.17762 15.5 8.16675C15.5 10.7284 14.1033 12.8251 12.6317 14.3292C11.8964 15.0726 11.0941 15.7466 10.235 16.3426L9.88 16.5842L9.71333 16.6951L9.39917 16.8951L9.11917 17.0659L8.7725 17.2676C8.5372 17.4019 8.27094 17.4725 8 17.4725C7.72906 17.4725 7.4628 17.4019 7.2275 17.2676L6.88083 17.0659L6.4475 16.7992L6.2875 16.6951L5.94583 16.4676C5.01903 15.8405 4.15575 15.1243 3.36833 14.3292C1.89667 12.8242 0.5 10.7284 0.5 8.16675C0.5 6.17762 1.29018 4.26997 2.6967 2.86345C4.10322 1.45692 6.01088 0.666748 8 0.666748ZM8 5.66675C7.6717 5.66675 7.34661 5.73141 7.04329 5.85705C6.73998 5.98269 6.46438 6.16683 6.23223 6.39898C6.00009 6.63113 5.81594 6.90673 5.6903 7.21004C5.56466 7.51335 5.5 7.83844 5.5 8.16675C5.5 8.49505 5.56466 8.82014 5.6903 9.12346C5.81594 9.42677 6.00009 9.70237 6.23223 9.93452C6.46438 10.1667 6.73998 10.3508 7.04329 10.4764C7.34661 10.6021 7.6717 10.6667 8 10.6667C8.66304 10.6667 9.29893 10.4034 9.76777 9.93452C10.2366 9.46567 10.5 8.82979 10.5 8.16675C10.5 7.50371 10.2366 6.86782 9.76777 6.39898C9.29893 5.93014 8.66304 5.66675 8 5.66675Z" fill="#DB4717"/>
</svg>
