<svg width="18" height="18" viewBox="0 0 18 18" fill="none" xmlns="http://www.w3.org/2000/svg">
<path d="M9.00008 0.666748C13.6026 0.666748 17.3334 4.39758 17.3334 9.00008C17.3334 13.6026 13.6026 17.3334 9.00008 17.3334C4.39758 17.3334 0.666748 13.6026 0.666748 9.00008C0.666748 4.39758 4.39758 0.666748 9.00008 0.666748ZM9.00008 4.00008C8.77907 4.00008 8.56711 4.08788 8.41083 4.24416C8.25455 4.40044 8.16675 4.6124 8.16675 4.83341V9.00008C8.1668 9.22108 8.25462 9.433 8.41091 9.58925L10.9109 12.0892C11.0681 12.241 11.2786 12.325 11.4971 12.3231C11.7156 12.3212 11.9246 12.2336 12.0791 12.0791C12.2336 11.9246 12.3212 11.7156 12.3231 11.4971C12.325 11.2786 12.241 11.0681 12.0892 10.9109L9.83341 8.65508V4.83341C9.83341 4.6124 9.74562 4.40044 9.58934 4.24416C9.43306 4.08788 9.22109 4.00008 9.00008 4.00008Z" fill="#DB4717"/>
</svg>
