<svg width="16" height="18" viewBox="0 0 16 18" fill="none" xmlns="http://www.w3.org/2000/svg">
<path d="M12.0167 16.3067L1.12755 2.30667C1.07016 2.23276 1.03465 2.14423 1.02508 2.05114C1.01551 1.95806 1.03225 1.86415 1.07341 1.78011C1.11456 1.69607 1.17847 1.62526 1.25787 1.57575C1.33727 1.52623 1.42897 1.49998 1.52255 1.5H3.58922C3.6653 1.50011 3.74035 1.51759 3.80865 1.55109C3.87696 1.58459 3.93672 1.63324 3.98338 1.69333L14.8725 15.6933C14.9299 15.7672 14.9654 15.8558 14.975 15.9489C14.9846 16.0419 14.9678 16.1358 14.9267 16.2199C14.8855 16.3039 14.8216 16.3747 14.7422 16.4243C14.6628 16.4738 14.5711 16.5 14.4775 16.5H12.4109C12.3348 16.4999 12.2598 16.4824 12.1914 16.4489C12.1231 16.4154 12.0634 16.3668 12.0167 16.3067Z" stroke="#333333" stroke-width="1.25"/>
<path d="M14.6668 1.5L1.3335 16.5" stroke="#333333" stroke-width="1.25" stroke-linecap="round"/>
</svg>
